<svg width="134" height="134" viewBox="0 0 134 134" fill="none" xmlns="http://www.w3.org/2000/svg">
<path d="M130.769 74.9187L123.094 74.2957L123.14 73.7365L126.791 74.0329L127.207 68.9018L123.556 68.6054L123.602 68.0462L131.277 68.6692L131.231 69.2284L127.701 68.9418L127.284 74.0729L130.815 74.3595L130.769 74.9187Z" fill="white"/>
<path d="M123.588 82.6366L124.641 78.2965L122.766 76.8341L122.909 76.2462L129.556 81.504L129.424 82.0492L121.106 83.6756L121.249 83.0877L123.588 82.6366ZM124.097 82.545L128.893 81.626L125.049 78.6218L124.097 82.545Z" fill="white"/>
<path d="M122.476 91.1096C122.171 91.6027 121.815 91.9204 121.408 92.0627C120.998 92.2118 120.545 92.1848 120.05 91.9818C119.439 91.7315 119.059 91.3259 118.908 90.7649C118.758 90.204 118.855 89.5028 119.2 88.6614L120.455 85.5976L127.58 88.5175L126.404 91.3878C126.098 92.1342 125.704 92.6505 125.222 92.9365C124.738 93.2293 124.204 93.2561 123.62 93.0169C123.206 92.8473 122.905 92.5969 122.715 92.2657C122.526 91.9346 122.446 91.5492 122.476 91.1096ZM124.069 87.6851L123.11 90.0262C122.865 90.6233 122.8 91.1314 122.913 91.5504C123.027 91.9695 123.314 92.2735 123.776 92.4626C124.244 92.6545 124.666 92.641 125.041 92.4222C125.416 92.2034 125.725 91.7954 125.97 91.1983L126.93 88.8572L124.069 87.6851ZM119.633 88.8509C119.082 90.1944 119.302 91.0692 120.293 91.4752C120.802 91.6838 121.245 91.6671 121.621 91.4251C121.998 91.1832 122.322 90.7297 122.595 90.0647L123.642 87.5099L120.68 86.2961L119.633 88.8509Z" fill="white"/>
<path d="M114.734 98.2946L114.298 98.0373L117 93.4628L123.63 97.3792L121.012 101.812L120.576 101.554L122.909 97.6049L120.295 96.0607L118.208 99.5933L117.782 99.3416L119.869 95.8089L117.151 94.2032L114.734 98.2946Z" fill="white"/>
<path d="M117.396 106.778C116.799 107.54 116.148 107.994 115.445 108.142C114.748 108.294 114.079 108.118 113.439 107.616C112.804 107.118 112.475 106.51 112.451 105.792C112.433 105.079 112.723 104.341 113.32 103.58L114.679 101.849L112.697 100.294L113.043 99.8526L119.101 104.606L117.396 106.778ZM113.718 103.892C113.211 104.538 112.966 105.142 112.981 105.705C112.997 106.267 113.267 106.754 113.792 107.166C114.317 107.578 114.854 107.725 115.404 107.606C115.96 107.492 116.491 107.112 116.998 106.466L118.356 104.735L115.077 102.161L113.718 103.892Z" fill="white"/>
<path d="M113.816 110.989L109.882 110.322L110.514 114.268L110.037 114.74L109.307 110.242L104.464 109.423L104.94 108.95L109.224 109.658L108.531 105.385L109 104.92L109.791 109.746L114.284 110.524L113.816 110.989Z" fill="white"/>
<path d="M100.386 121.914L96.1108 115.51L96.5774 115.199L98.6112 118.245L102.893 115.387L100.859 112.34L101.325 112.029L105.601 118.433L105.134 118.744L103.168 115.798L98.8861 118.657L100.853 121.603L100.386 121.914Z" fill="white"/>
<path d="M89.8219 121.095L93.8814 119.234L93.868 116.856L94.418 116.604L94.4081 125.079L93.8981 125.313L87.4688 119.791L88.0188 119.538L89.8219 121.095ZM90.2091 121.438L93.9013 124.634L93.8786 119.755L90.2091 121.438Z" fill="white"/>
<path d="M82.5001 125.473C81.924 125.539 81.454 125.456 81.09 125.225C80.7189 124.996 80.4595 124.624 80.3117 124.11C80.1294 123.476 80.2117 122.925 80.5585 122.46C80.9053 121.994 81.5157 121.635 82.3897 121.384L85.5719 120.47L87.6984 127.87L84.717 128.727C83.9417 128.95 83.2925 128.961 82.7694 128.76C82.2393 128.561 81.8871 128.159 81.713 127.553C81.5894 127.123 81.5989 126.731 81.7414 126.377C81.8839 126.023 82.1368 125.722 82.5001 125.473ZM86.175 124.6L83.7433 125.298C83.1231 125.477 82.6838 125.74 82.4255 126.089C82.1671 126.438 82.1068 126.852 82.2445 127.331C82.3842 127.818 82.6562 128.14 83.0603 128.299C83.4645 128.457 83.9767 128.447 84.597 128.269L87.0286 127.571L86.175 124.6ZM82.5097 121.842C81.1142 122.243 80.5643 122.958 80.86 123.987C81.0118 124.515 81.2994 124.852 81.7227 124.998C82.146 125.143 82.703 125.117 83.3937 124.918L86.0474 124.156L85.1634 121.079L82.5097 121.842Z" fill="white"/>
<path d="M72.1472 123.852L72.0772 123.35L77.3392 122.616L78.4036 130.242L73.305 130.954L73.2351 130.453L77.778 129.818L77.3584 126.812L73.2948 127.379L73.2263 126.889L77.2899 126.321L76.8535 123.195L72.1472 123.852Z" fill="white"/>
<path d="M67.1437 131.205C66.1757 131.212 65.415 130.987 64.8614 130.53C64.3079 130.079 64.0281 129.447 64.0218 128.633C64.0155 127.826 64.2856 127.19 64.8321 126.724C65.3785 126.265 66.1357 126.032 67.1037 126.024L69.3037 126.007L69.2842 123.488L69.8452 123.484L69.9046 131.184L67.1437 131.205ZM67.1076 126.53C66.2863 126.536 65.6607 126.721 65.2308 127.084C64.801 127.446 64.5886 127.961 64.5937 128.629C64.5989 129.296 64.8192 129.808 65.2546 130.164C65.6901 130.527 66.3185 130.705 67.1398 130.699L69.3397 130.682L69.3076 126.513L67.1076 126.53Z" fill="white"/>
<path d="M61.351 131.002L59.4468 127.497L56.7334 130.43L56.0675 130.348L59.1543 126.995L56.8072 122.68L57.4731 122.763L59.5618 126.569L62.4947 123.385L63.1497 123.466L59.8434 127.069L62.006 131.084L61.351 131.002Z" fill="white"/>
<path d="M44.5172 127.222L46.8942 119.898L47.4278 120.071L46.297 123.556L51.1936 125.145L52.3243 121.661L52.858 121.834L50.481 129.158L49.9474 128.984L51.0408 125.615L46.1442 124.026L45.0508 127.395L44.5172 127.222Z" fill="white"/>
<path d="M38.6266 118.4L42.5992 120.44L44.4601 118.96L44.9983 119.237L38.3294 124.468L37.8304 124.211L38.198 115.744L38.7361 116.02L38.6266 118.4ZM38.5964 118.916L38.3663 123.794L42.1874 120.761L38.5964 118.916Z" fill="white"/>
<path d="M30.656 115.343C30.248 114.931 30.0225 114.511 29.9795 114.082C29.9305 113.648 30.0627 113.215 30.376 112.781C30.7623 112.246 31.2457 111.97 31.8264 111.955C32.407 111.94 33.066 112.199 33.8033 112.731L36.4879 114.669L31.9812 120.913L29.466 119.097C28.8119 118.625 28.4023 118.121 28.237 117.586C28.0658 117.046 28.1647 116.521 28.5338 116.009C28.7957 115.647 29.1097 115.412 29.476 115.306C29.8422 115.199 30.2356 115.212 30.656 115.343ZM33.6123 117.694L31.5609 116.214C31.0376 115.836 30.559 115.653 30.125 115.666C29.6911 115.678 29.3281 115.886 29.0363 116.291C28.7401 116.701 28.6545 117.114 28.7795 117.53C28.9044 117.945 29.2285 118.342 29.7517 118.72L31.8031 120.201L33.6123 117.694ZM33.5175 113.108C32.3402 112.259 31.4382 112.268 30.8116 113.136C30.4896 113.582 30.4022 114.016 30.5493 114.439C30.6964 114.862 31.0613 115.283 31.644 115.704L33.8827 117.32L35.7562 114.724L33.5175 113.108Z" fill="white"/>
<path d="M25.5484 106.242L25.8984 105.876L29.7362 109.55L24.4115 115.112L20.6928 111.552L21.0427 111.187L24.3561 114.359L26.4556 112.166L23.4918 109.328L23.8341 108.971L26.7979 111.808L28.9811 109.528L25.5484 106.242Z" fill="white"/>
<path d="M16.6484 106.841C16.0453 106.084 15.7531 105.347 15.7718 104.629C15.7847 103.915 16.1095 103.305 16.7462 102.798C17.3771 102.295 18.0446 102.115 18.7487 102.257C19.447 102.404 20.0977 102.856 20.7008 103.613L22.0716 105.334L24.0419 103.764L24.3914 104.203L18.3688 109.001L16.6484 106.841ZM20.3051 103.929C19.7933 103.286 19.2621 102.908 18.7115 102.793C18.1608 102.679 17.6245 102.829 17.1026 103.245C16.5806 103.661 16.3139 104.15 16.3024 104.712C16.2852 105.279 16.5325 105.884 17.0442 106.526L18.415 108.247L21.6758 105.649L20.3051 103.929Z" fill="white"/>
<path d="M13.3768 102.398L14.9364 98.7256L10.9515 98.4268L10.6018 97.8542L15.1472 98.1844L17.0641 93.6623L17.4139 94.2349L15.7343 98.2382L20.0513 98.5532L20.3953 99.1165L15.5178 98.77L13.7208 102.961L13.3768 102.398Z" fill="white"/>
<path d="M5.8608 86.8336L13.0801 84.1556L13.2752 84.6815L9.84089 85.9555L11.6313 90.7821L15.0656 89.5082L15.2608 90.0341L8.04144 92.7121L7.84633 92.1862L11.1672 90.9543L9.37679 86.1277L6.05591 87.3595L5.8608 86.8336Z" fill="white"/>
<path d="M9.11178 76.7675L9.98202 81.1479L12.2983 81.6859L12.4161 82.2793L4.17355 80.3056L4.06423 79.7553L10.9264 74.7808L11.0443 75.3742L9.11178 76.7675ZM8.68857 77.0647L4.72415 79.9158L9.47522 81.0243L8.68857 77.0647Z" fill="white"/>
<path d="M6.54657 68.6298C6.61532 68.054 6.80424 67.6158 7.11332 67.3152C7.42206 67.0072 7.84381 66.8409 8.37857 66.8161C9.03787 66.7855 9.55402 66.9928 9.92703 67.4381C10.3 67.8833 10.5076 68.5601 10.5497 69.4684L10.703 72.7759L3.01121 73.1323L2.86761 70.0336C2.83027 69.2278 2.96973 68.5937 3.28599 68.1312C3.60192 67.6614 4.07488 67.4119 4.70487 67.3827C5.15172 67.362 5.53075 67.4619 5.84196 67.6824C6.15317 67.9029 6.38804 68.2187 6.54657 68.6298ZM6.54542 72.4069L6.4283 69.8796C6.39843 69.235 6.24365 68.7466 5.96398 68.4146C5.68431 68.0825 5.29541 67.928 4.79727 67.9511C4.29182 67.9745 3.91521 68.1645 3.66744 68.521C3.41968 68.8775 3.31074 69.3781 3.34061 70.0227L3.45773 72.55L6.54542 72.4069ZM10.0767 69.4793C10.0095 68.0289 9.4411 67.3284 8.37158 67.378C7.82217 67.4035 7.42775 67.6053 7.18833 67.9834C6.94892 68.3616 6.84584 68.9096 6.87911 69.6275L7.00692 72.3855L10.2045 72.2374L10.0767 69.4793Z" fill="white"/>
<path d="M10.5175 58.7693L11.0212 58.818L10.5098 64.1064L2.84557 63.3652L3.34107 58.2411L3.84472 58.2898L3.40322 62.8556L6.42513 63.1478L6.82004 59.0638L7.31274 59.1115L6.91783 63.1954L10.0602 63.4993L10.5175 58.7693Z" fill="white"/>
<path d="M4.52281 52.1608C4.74391 51.2184 5.14216 50.5322 5.71757 50.1023C6.28584 49.6706 6.96621 49.5478 7.7587 49.7337C8.54404 49.918 9.0988 50.3306 9.42296 50.9716C9.73999 51.6109 9.78796 52.4017 9.56686 53.3441L9.06438 55.486L11.5168 56.0613L11.3887 56.6075L3.89219 54.8488L4.52281 52.1608ZM9.07424 53.2286C9.26183 52.429 9.23012 51.7775 8.97911 51.2742C8.7281 50.7709 8.27774 50.443 7.62805 50.2906C6.97836 50.1382 6.42918 50.2315 5.98052 50.5707C5.52473 50.9082 5.20303 51.4767 5.01544 52.2764L4.51295 54.4182L8.57175 55.3704L9.07424 53.2286Z" fill="white"/>
<path d="M5.95448 46.9228L9.80412 45.8753L7.57274 42.5603L7.80611 41.9312L10.3597 45.706L15.0981 44.4132L14.8647 45.0423L10.6807 46.2005L13.1049 49.7865L12.8754 50.4053L10.129 46.3595L5.72493 47.5416L5.95448 46.9228Z" fill="white"/>
<path d="M13.527 31.3653L20.0983 35.3788L19.8059 35.8576L16.6799 33.9483L13.9965 38.3417L17.1226 40.2509L16.8302 40.7297L10.2589 36.7162L10.5513 36.2374L13.5741 38.0837L16.2574 33.6903L13.2346 31.8441L13.527 31.3653Z" fill="white"/>
<path d="M23.3909 27.7221L20.4953 31.1222L21.5104 33.2726L21.1181 33.7332L17.5523 26.0442L17.9161 25.6171L26.0748 27.9128L25.6826 28.3734L23.3909 27.7221ZM22.8953 27.5746L18.1996 26.2342L20.2778 30.6481L22.8953 27.5746Z" fill="white"/>
<path d="M28.1492 20.6621C28.6432 20.3584 29.104 20.2343 29.5315 20.2899C29.9646 20.3406 30.357 20.5679 30.7085 20.9716C31.1419 21.4694 31.2999 22.0027 31.1826 22.5716C31.0653 23.1404 30.6637 23.7234 29.9779 24.3205L27.4807 26.4946L22.4246 20.6871L24.7642 18.6503C25.3726 18.1206 25.9562 17.8361 26.5151 17.7968C27.0795 17.7527 27.5688 17.9684 27.9829 18.4441C28.2766 18.7815 28.4337 19.1406 28.4542 19.5214C28.4746 19.9023 28.3729 20.2825 28.1492 20.6621ZM25.188 23.0068L27.0961 21.3455C27.5828 20.9218 27.8695 20.4972 27.9561 20.0717C28.0427 19.6463 27.9223 19.2456 27.5948 18.8694C27.2626 18.4878 26.8798 18.3106 26.4465 18.3378C26.0132 18.365 25.5532 18.5905 25.0665 19.0142L23.1583 20.6755L25.188 23.0068ZM29.6756 23.9565C30.7707 23.0031 30.9667 22.1226 30.2637 21.3151C29.9025 20.9003 29.4994 20.7165 29.0544 20.7637C28.6093 20.8108 28.1157 21.0704 27.5737 21.5423L25.4913 23.3552L27.5932 25.7695L29.6756 23.9565Z" fill="white"/>
<path d="M38.2969 17.6689L38.5717 18.0938L34.1102 20.9788L29.9291 14.5128L34.2521 11.7175L34.5268 12.1424L30.675 14.6331L32.3235 17.1825L35.7689 14.9546L36.0377 15.3703L32.5923 17.5982L34.3065 20.2492L38.2969 17.6689Z" fill="white"/>
<path d="M39.6504 8.90444C40.5257 8.49114 41.3107 8.37597 42.0053 8.55891C42.6967 8.73523 43.2162 9.19142 43.5638 9.9275C43.9082 10.6569 43.9304 11.348 43.6303 12.0006C43.327 12.6465 42.7378 13.1762 41.8624 13.5895L39.873 14.5288L40.9485 16.8066L40.4412 17.0462L37.1537 10.0833L39.6504 8.90444ZM41.6464 13.1319C42.3891 12.7812 42.8794 12.3511 43.1172 11.8414C43.355 11.3317 43.3315 10.7752 43.0465 10.1717C42.7616 9.56827 42.3468 9.19644 41.8022 9.05624C41.2544 8.9094 40.6091 9.01132 39.8664 9.362L37.877 10.3013L39.657 14.0712L41.6464 13.1319Z" fill="white"/>
<path d="M44.9012 6.66243L48.1106 9.03249L49.327 5.2261L49.9652 5.01896L48.588 9.36326L52.5409 12.2784L51.9027 12.4855L48.3992 9.92182L47.0898 14.0475L46.4621 14.2512L47.9322 9.58765L44.2735 6.86617L44.9012 6.66243Z" fill="white"/>
<path d="M61.4982 2.98827L62.4453 10.6298L61.8886 10.6988L61.438 7.06362L56.3291 7.69685L56.7797 11.332L56.2229 11.401L55.2758 3.75951L55.8326 3.69051L56.2682 7.20561L61.3771 6.57238L60.9415 3.05728L61.4982 2.98827Z" fill="white"/>
<path d="M70.9893 8.44708L66.5267 8.27477L65.4648 10.4024L64.8602 10.379L68.6967 2.82143L69.2573 2.84308L72.4995 10.674L71.895 10.6507L70.9893 8.44708ZM70.7988 7.96637L68.9477 3.44758L66.7648 7.81061L70.7988 7.96637Z" fill="white"/>
<path d="M79.5417 7.83603C80.0858 8.03685 80.468 8.32252 80.6885 8.69306C80.9162 9.06497 80.9799 9.51386 80.8796 10.0397C80.7559 10.688 80.4342 11.1418 79.9144 11.401C79.3946 11.6602 78.6881 11.7046 77.7949 11.5342L74.5426 10.9139L75.9852 3.35025L79.0323 3.93144C79.8247 4.08257 80.409 4.36573 80.7852 4.7809C81.1686 5.19744 81.3012 5.71547 81.183 6.33497C81.0992 6.77438 80.9139 7.11977 80.6271 7.37115C80.3402 7.62252 79.9784 7.77748 79.5417 7.83603ZM75.8685 6.95624L78.3537 7.43026C78.9876 7.55117 79.4986 7.51425 79.8866 7.3195C80.2747 7.12476 80.5154 6.78246 80.6088 6.29263C80.7036 5.79559 80.6065 5.38512 80.3174 5.06122C80.0283 4.73731 79.5668 4.51491 78.9329 4.394L76.4477 3.91998L75.8685 6.95624ZM77.8943 11.0717C79.3206 11.3437 80.1341 10.9539 80.3347 9.90219C80.4377 9.36193 80.3332 8.93138 80.0211 8.61056C79.709 8.28974 79.2 8.06201 78.4941 7.92736L75.782 7.41006L75.1822 10.5544L77.8943 11.0717Z" fill="white"/>
<path d="M87.8083 13.8552L87.6449 14.3341L82.6167 12.618L85.1037 5.33069L89.9758 6.99347L89.8124 7.47235L85.4712 5.99077L84.4906 8.86404L88.3737 10.1893L88.2138 10.6578L84.3307 9.33251L83.311 12.3203L87.8083 13.8552Z" fill="white"/>
<path d="M95.6585 9.54246C96.5244 9.97515 97.1001 10.5211 97.3856 11.1802C97.6744 11.8327 97.6368 12.5231 97.273 13.2513C96.9124 13.9728 96.3828 14.4174 95.6843 14.5848C94.9891 14.7457 94.2085 14.6098 93.3426 14.1771L91.3746 13.1937L90.2487 15.447L89.7468 15.1963L93.1887 8.30832L95.6585 9.54246ZM93.5688 13.7244C94.3035 14.0916 94.9447 14.2111 95.4924 14.0831C96.04 13.955 96.463 13.5925 96.7613 12.9956C97.0596 12.3986 97.0955 11.8427 96.8691 11.3279C96.646 10.8065 96.167 10.3622 95.4323 9.9951L93.4643 9.01171L91.6008 12.741L93.5688 13.7244Z" fill="white"/>
<path d="M100.544 12.2002L100.672 16.1877L104.413 14.7837L104.971 15.1563L100.708 16.7674L100.87 21.6763L100.312 21.3038L100.153 16.9654L96.1034 18.4942L95.5545 18.1278L100.126 16.3918L99.9946 11.8337L100.544 12.2002Z" fill="white"/>
<path d="M114.104 23.3062L108.679 28.7706L108.281 28.3754L110.862 25.7759L107.209 22.1489L104.628 24.7485L104.23 24.3532L109.655 18.8888L110.053 19.284L107.557 21.7977L111.211 25.4246L113.706 22.9109L114.104 23.3062Z" fill="white"/>
<path d="M115.359 33.7397L112.719 30.1378L110.392 30.6293L110.034 30.1413L118.339 28.4458L118.67 28.8983L114.554 36.3072L114.197 35.8193L115.359 33.7397ZM115.617 33.2915L118.005 29.0318L113.23 30.0356L115.617 33.2915Z" fill="white"/>
<path d="M121.163 40.0879C121.344 40.639 121.358 41.116 121.204 41.519C121.054 41.9284 120.742 42.2572 120.268 42.5053C119.683 42.8112 119.128 42.8411 118.602 42.5948C118.075 42.3486 117.602 41.8226 117.18 41.0168L115.646 38.0829L122.469 34.5141L123.906 37.2628C124.28 37.9776 124.421 38.6114 124.33 39.1641C124.242 39.7233 123.918 40.1491 123.359 40.4414C122.963 40.6487 122.577 40.7181 122.202 40.6495C121.827 40.5809 121.481 40.3937 121.163 40.0879ZM119.571 36.6631L120.743 38.9049C121.042 39.4768 121.389 39.8542 121.782 40.0373C122.176 40.2203 122.594 40.1963 123.036 39.9651C123.484 39.7306 123.745 39.3995 123.82 38.9717C123.894 38.5439 123.781 38.0441 123.482 37.4723L122.31 35.2305L119.571 36.6631ZM117.605 40.8073C118.277 42.094 119.088 42.4892 120.037 41.9929C120.524 41.738 120.797 41.3886 120.854 40.9448C120.912 40.5009 120.774 39.9606 120.441 39.3237L119.161 36.8772L116.325 38.3608L117.605 40.8073Z" fill="white"/>
<path d="M121.644 50.4982L121.167 50.6671L119.394 45.6585L126.653 43.0894L128.371 47.9424L127.894 48.1112L126.363 43.7871L123.501 44.8L124.87 48.6679L124.403 48.8331L123.034 44.9652L120.058 46.0186L121.644 50.4982Z" fill="white"/>
<path d="M129.841 53.8198C130.041 54.767 129.971 55.5573 129.633 56.1908C129.301 56.8226 128.737 57.2225 127.94 57.3902C127.151 57.5565 126.474 57.4181 125.908 56.9751C125.35 56.5306 124.971 55.8347 124.772 54.8875L124.318 52.7347L121.853 53.2539L121.738 52.7049L129.272 51.1181L129.841 53.8198ZM125.267 54.7832C125.436 55.5869 125.741 56.1635 126.182 56.5128C126.623 56.8621 127.17 56.968 127.823 56.8305C128.476 56.693 128.933 56.3755 129.196 55.8781C129.465 55.3791 129.516 54.7278 129.346 53.9241L128.893 51.7713L124.813 52.6305L125.267 54.7832Z" fill="white"/>
<path d="M130.794 59.3991L127.748 61.975L131.171 64.0368L131.225 64.7056L127.316 62.3632L123.567 65.5369L123.513 64.8681L126.816 62.0507L123.104 59.8247L123.05 59.1669L127.249 61.6734L130.741 58.7412L130.794 59.3991Z" fill="white"/>
</svg>
