<svg width="24" height="24" viewBox="0 0 24 24" fill="none" xmlns="http://www.w3.org/2000/svg">
<path d="M13 14.2929L16.1464 11.1464C16.3417 10.9512 16.6583 10.9512 16.8536 11.1464C17.0488 11.3417 17.0488 11.6583 16.8536 11.8536L12.8536 15.8536C12.6583 16.0488 12.3417 16.0488 12.1464 15.8536L8.14645 11.8536C7.95118 11.6583 7.95118 11.3417 8.14645 11.1464C8.34171 10.9512 8.65829 10.9512 8.85355 11.1464L12 14.2929V3.5C12 3.22386 12.2239 3 12.5 3C12.7761 3 13 3.22386 13 3.5V14.2929ZM20 15.5C20 15.2239 20.2239 15 20.5 15C20.7761 15 21 15.2239 21 15.5V18.5C21 19.8807 19.8807 21 18.5 21H6.5C5.11929 21 4 19.8807 4 18.5V15.5C4 15.2239 4.22386 15 4.5 15C4.77614 15 5 15.2239 5 15.5L5 18.5C5 19.3284 5.67157 20 6.5 20H18.5C19.3284 20 20 19.3284 20 18.5V15.5Z" fill="white"/>
</svg>
