<svg width="40" height="54" viewBox="0 0 40 54" fill="none" xmlns="http://www.w3.org/2000/svg">
<g clip-path="url(#clip0_3_63)">
<path d="M39.5098 25.8637C38.8563 25.274 37.796 25.274 37.1425 25.8637L20.0009 42.7495L2.85757 25.8637C2.20404 25.274 1.14365 25.274 0.490116 25.8637C-0.163413 26.4534 -0.163413 27.4099 0.490116 27.9995L18.7321 45.9688C19.0806 46.2831 19.544 46.4177 19.9992 46.3969C20.4559 46.4177 20.9178 46.2831 21.2663 45.9688L39.5099 27.9979C40.1634 27.4083 40.1634 26.4534 39.5098 25.8637Z" fill="white"/>
</g>
<g clip-path="url(#clip1_3_63)">
<path d="M39.5098 7.90859C38.8563 7.31888 37.796 7.31888 37.1425 7.90859L20.0009 24.7944L2.85757 7.90859C2.20404 7.31888 1.14365 7.31888 0.490116 7.90859C-0.163413 8.49829 -0.163413 9.45472 0.490116 10.0444L18.7321 28.0136C19.0806 28.3279 19.544 28.4626 19.9992 28.4417C20.4559 28.4626 20.9178 28.3279 21.2663 28.0136L39.5099 10.0428C40.1634 9.45319 40.1634 8.49829 39.5098 7.90859Z" fill="white"/>
</g>
<defs>
<clipPath id="clip0_3_63">
<rect width="40" height="35.9102" fill="white" transform="translate(0 17.9551)"/>
</clipPath>
<clipPath id="clip1_3_63">
<rect width="40" height="35.9102" fill="white"/>
</clipPath>
</defs>
</svg>
