<svg xmlns="http://www.w3.org/2000/svg" width="256" height="256" viewBox="0 0 100 100"><rect width="100" height="100" rx="20" fill="#20242f"></rect><path fill="#00d186" d="M25.25 75.91Q19.56 75.91 14.34 74.71Q9.12 73.51 5.91 71.32L5.91 71.32Q4.81 70.51 4.81 69.86L4.81 69.86Q4.81 69.42 5.18 68.83L5.18 68.83L8.17 64.09Q8.61 63.36 9.12 63.36L9.12 63.36Q9.56 63.36 10.22 63.80L10.22 63.80Q12.92 65.33 16.42 66.28Q19.92 67.23 23.50 67.23L23.50 67.23Q27.74 67.23 29.78 65.88Q31.82 64.53 31.82 61.61L31.82 61.61Q31.82 59.64 30.84 58.39Q29.85 57.15 27.92 56.20Q25.98 55.26 21.97 53.72L21.97 53.72Q17.30 51.97 14.05 50.15Q10.80 48.32 8.72 45.44Q6.64 42.55 6.64 38.39L6.64 38.39Q6.64 31.46 11.68 27.77Q16.71 24.08 24.96 24.08L24.96 24.08Q35.84 24.08 41.61 28.17L41.61 28.17Q42.70 29.05 42.70 29.63L42.70 29.63Q42.70 30.07 42.34 30.65L42.34 30.65L39.34 35.40Q38.90 36.13 38.39 36.13L38.39 36.13Q37.95 36.13 37.30 35.69L37.30 35.69Q32.84 32.77 26.49 32.77L26.49 32.77Q18.61 32.77 18.61 38.47L18.61 38.47Q18.61 40.36 19.52 41.57Q20.44 42.77 22.04 43.61Q23.65 44.45 27.08 45.77L27.08 45.77L29.12 46.57Q34.45 48.69 37.52 50.55Q40.58 52.41 42.23 55.11Q43.87 57.81 43.87 62.04L43.87 62.04Q43.87 68.40 39.09 72.16Q34.30 75.91 25.25 75.91L25.25 75.91ZM75.04 75.91Q62.34 75.91 55.37 69.24Q48.39 62.56 48.39 50L48.39 50Q48.39 37.44 55.40 30.76Q62.41 24.08 75.04 24.08L75.04 24.08Q80.37 24.08 84.82 25.14Q89.27 26.20 92.19 28.17L92.19 28.17Q93.00 28.68 93.00 29.34L93.00 29.34Q93.00 29.63 92.63 30.36L92.63 30.36L89.86 35.03Q89.35 35.84 88.84 35.84L88.84 35.84Q88.47 35.84 87.67 35.40L87.67 35.40Q82.85 32.77 76.57 32.77L76.57 32.77Q68.98 32.77 64.67 37.08Q60.37 41.39 60.37 50L60.37 50Q60.37 58.69 64.38 62.92Q68.40 67.16 75.70 67.16L75.70 67.16Q78.03 67.16 80.29 66.79Q82.56 66.42 83.94 65.77L83.94 65.77L83.94 54.53L75.99 54.53Q74.24 54.53 73.58 53.83Q72.92 53.14 72.92 51.46L72.92 51.46L72.92 48.83Q72.92 47.23 73.58 46.53Q74.24 45.84 75.99 45.84L75.99 45.84L91.46 45.84Q93.51 45.84 94.35 46.79Q95.19 47.74 95.19 49.71L95.19 49.71L95.19 68.25Q95.19 69.49 94.89 70.15Q94.60 70.80 93.73 71.39L93.73 71.39Q86.65 75.91 75.04 75.91L75.04 75.91Z"></path></svg>