<svg width="65" height="36" viewBox="0 0 65 36" fill="none" xmlns="http://www.w3.org/2000/svg">
<path d="M14.024 35.576C11.368 35.576 8.792 35.224 6.296 34.52C3.832 33.784 1.848 32.84 0.344 31.688L2.984 25.832C4.424 26.888 6.136 27.736 8.12 28.376C10.104 29.016 12.088 29.336 14.072 29.336C16.28 29.336 17.912 29.016 18.968 28.376C20.024 27.704 20.552 26.824 20.552 25.736C20.552 24.936 20.232 24.28 19.592 23.768C18.984 23.224 18.184 22.792 17.192 22.472C16.232 22.152 14.92 21.8 13.256 21.416C10.696 20.808 8.6 20.2 6.968 19.592C5.336 18.984 3.928 18.008 2.744 16.664C1.592 15.32 1.016 13.528 1.016 11.288C1.016 9.336 1.544 7.576 2.6 6.008C3.656 4.408 5.24 3.144 7.352 2.216C9.496 1.288 12.104 0.823999 15.176 0.823999C17.32 0.823999 19.416 1.08 21.464 1.592C23.512 2.104 25.304 2.84 26.84 3.8L24.44 9.704C21.336 7.944 18.232 7.064 15.128 7.064C12.952 7.064 11.336 7.416 10.28 8.12C9.256 8.824 8.744 9.752 8.744 10.904C8.744 12.056 9.336 12.92 10.52 13.496C11.736 14.04 13.576 14.584 16.04 15.128C18.6 15.736 20.696 16.344 22.328 16.952C23.96 17.56 25.352 18.52 26.504 19.832C27.688 21.144 28.28 22.92 28.28 25.16C28.28 27.08 27.736 28.84 26.648 30.44C25.592 32.008 23.992 33.256 21.848 34.184C19.704 35.112 17.096 35.576 14.024 35.576Z" fill="#8000FF"/>
<path d="M56.2974 17.672H63.4014V31.304C61.5774 32.68 59.4654 33.736 57.0654 34.472C54.6654 35.208 52.2494 35.576 49.8174 35.576C46.3294 35.576 43.1934 34.84 40.4094 33.368C37.6254 31.864 35.4334 29.8 33.8334 27.176C32.2654 24.52 31.4814 21.528 31.4814 18.2C31.4814 14.872 32.2654 11.896 33.8334 9.272C35.4334 6.616 37.6414 4.552 40.4574 3.08C43.2734 1.576 46.4414 0.823999 49.9614 0.823999C52.9054 0.823999 55.5774 1.32 57.9774 2.312C60.3774 3.304 62.3934 4.744 64.0254 6.632L59.0334 11.24C56.6334 8.712 53.7374 7.448 50.3454 7.448C48.2014 7.448 46.2974 7.896 44.6334 8.792C42.9694 9.688 41.6734 10.952 40.7454 12.584C39.8174 14.216 39.3534 16.088 39.3534 18.2C39.3534 20.28 39.8174 22.136 40.7454 23.768C41.6734 25.4 42.9534 26.68 44.5854 27.608C46.2494 28.504 48.1374 28.952 50.2494 28.952C52.4894 28.952 54.5054 28.472 56.2974 27.512V17.672Z" fill="#00D186"/>
</svg>
