<svg width="50" height="50" viewBox="0 0 50 50" fill="none" xmlns="http://www.w3.org/2000/svg">
<g clip-path="url(#clip0_5_241)">
<path d="M0.612652 25.9923C1.42957 26.5397 2.75497 26.5397 3.57188 25.9923L24.9988 10.3182L46.428 25.9923C47.2449 26.5397 48.5704 26.5397 49.3873 25.9923C50.2042 25.4449 50.2042 24.5571 49.3873 24.0098L26.5848 7.32999C26.1493 7.03821 25.5699 6.91321 25.001 6.9326C24.43 6.91321 23.8527 7.03821 23.4171 7.32999L0.612568 24.0112C-0.204262 24.5585 -0.204258 25.4449 0.612652 25.9923Z" fill="white"/>
</g>
<g clip-path="url(#clip1_5_241)">
<path d="M0.612652 42.659C1.42957 43.2064 2.75497 43.2064 3.57188 42.659L24.9988 26.985L46.428 42.659C47.2449 43.2064 48.5704 43.2064 49.3873 42.659C50.2042 42.1117 50.2042 41.2239 49.3873 40.6765L26.5848 23.9967C26.1493 23.705 25.5699 23.58 25.001 23.5993C24.43 23.58 23.8527 23.705 23.4171 23.9967L0.612568 40.678C-0.204262 41.2253 -0.204258 42.1117 0.612652 42.659Z" fill="white"/>
</g>
<defs>
<clipPath id="clip0_5_241">
<rect width="50" height="33.3333" fill="white" transform="translate(50 33.3333) rotate(-180)"/>
</clipPath>
<clipPath id="clip1_5_241">
<rect width="50" height="33.3333" fill="white" transform="translate(50 50) rotate(-180)"/>
</clipPath>
</defs>
</svg>
